<svg width="573" height="101" viewBox="0 0 573 101" fill="none" xmlns="http://www.w3.org/2000/svg">
<path d="M162.724 100.889H0V87.8708H162.724V100.889Z" fill="white"/>
<path d="M81.3619 0C92.0465 0 102.627 2.1047 112.498 6.19351C122.369 10.2823 131.339 16.275 138.894 23.8301C146.449 31.3852 152.441 40.3547 156.53 50.2259C160.619 60.0971 162.724 70.6773 162.724 81.3619H149.914C149.914 72.3596 148.141 63.4453 144.696 55.1282C141.251 46.8111 136.201 39.2537 129.836 32.888C123.47 26.5223 115.913 21.4726 107.596 18.0275C99.2785 14.5825 90.3642 12.8097 81.3619 12.8097C72.3596 12.8097 63.4453 14.5825 55.1282 18.0275C46.8111 21.4726 39.2537 26.5223 32.888 32.888C26.5223 39.2537 21.4726 46.8111 18.0275 55.1282C14.5825 63.4453 12.8097 72.3596 12.8097 81.3619H0C0 70.6773 2.1047 60.0971 6.19352 50.2259C10.2823 40.3547 16.275 31.3852 23.8301 23.8301C31.3852 16.275 40.3547 10.2823 50.2259 6.19351C60.0972 2.1047 70.6773 4.67039e-07 81.3619 0Z" fill="white"/>
<path d="M81.3619 22.098C89.1446 22.098 96.8512 23.6304 104.042 26.6087C111.232 29.587 117.765 33.9526 123.268 39.4557C128.771 44.9589 133.137 51.4921 136.115 58.6823C139.093 65.8725 140.627 73.5792 140.627 81.3619H125.987C125.987 75.5016 124.833 69.6988 122.59 64.2846C120.348 58.8705 117.06 53.951 112.917 49.8071C108.773 45.6633 103.853 42.3761 98.4392 40.1335C93.025 37.8909 87.2221 36.7368 81.3619 36.7368C75.5017 36.7368 69.6988 37.8909 64.2846 40.1335C58.8704 42.3761 53.951 45.6633 49.8071 49.8071C45.6633 53.951 42.3761 58.8704 40.1335 64.2846C37.8909 69.6988 36.7368 75.5017 36.7368 81.3619H22.098C22.098 73.5792 23.6304 65.8725 26.6087 58.6823C29.587 51.492 33.9526 44.9589 39.4557 39.4557C44.9589 33.9526 51.492 29.587 58.6823 26.6087C65.8725 23.6304 73.5792 22.098 81.3619 22.098Z" fill="white"/>
<path d="M81.3619 46.7839C85.9026 46.7839 90.3992 47.6778 94.5943 49.4154C98.7895 51.1531 102.602 53.7004 105.813 56.9112C109.023 60.1221 111.571 63.9342 113.308 68.1295C115.046 72.3246 115.941 76.8211 115.941 81.3619H102.428C102.428 78.5955 101.883 75.8562 100.824 73.3004C99.7657 70.7445 98.2143 68.4218 96.2581 66.4657C94.302 64.5096 91.9792 62.958 89.4234 61.8994C86.8676 60.8408 84.1282 60.296 81.3619 60.296C78.5955 60.296 75.8562 60.8408 73.3004 61.8994C70.7447 62.958 68.4226 64.5097 66.4665 66.4657C64.5103 68.4218 62.9581 70.7445 61.8994 73.3004C60.8408 75.8562 60.296 78.5955 60.296 81.3619H46.7839C46.7839 76.821 47.6785 72.3247 49.4162 68.1295C51.1539 63.9343 53.7004 60.1221 56.9112 56.9112C60.1221 53.7003 63.9342 51.1531 68.1295 49.4154C72.3246 47.6777 76.8211 46.7839 81.3619 46.7839Z" fill="white"/>
<path d="M81.3619 69.2172C82.9568 69.2172 84.5365 69.5309 86.01 70.1413C87.4834 70.7516 88.8225 71.6459 89.9502 72.7736C91.0779 73.9013 91.9722 75.2404 92.5825 76.7138C93.1929 78.1873 93.5074 79.767 93.5074 81.3619H69.2172C69.2172 79.767 69.5317 78.1873 70.1421 76.7138C70.7524 75.2404 71.6467 73.9013 72.7744 72.7736C73.9021 71.6459 75.2412 70.7516 76.7146 70.1413C78.188 69.531 79.7671 69.2172 81.3619 69.2172Z" fill="white"/>
<path d="M243.056 90.4637C237.526 90.4637 232.539 89.5012 228.094 87.5762C223.684 85.6512 220.044 82.9037 217.174 79.3337C214.339 75.7287 212.536 71.4587 211.766 66.5237L224.891 64.5287C226.011 69.0087 228.304 72.4737 231.769 74.9237C235.269 77.3737 239.294 78.5987 243.844 78.5987C246.539 78.5987 249.076 78.1787 251.456 77.3387C253.836 76.4987 255.761 75.2737 257.231 73.6637C258.736 72.0537 259.489 70.0762 259.489 67.7312C259.489 66.6812 259.314 65.7187 258.964 64.8437C258.614 63.9337 258.089 63.1287 257.389 62.4287C256.724 61.7287 255.849 61.0987 254.764 60.5387C253.714 59.9437 252.489 59.4362 251.089 59.0162L231.559 53.2412C229.879 52.7512 228.059 52.1037 226.099 51.2987C224.174 50.4587 222.336 49.3212 220.586 47.8862C218.871 46.4162 217.454 44.5612 216.334 42.3212C215.249 40.0462 214.706 37.2462 214.706 33.9212C214.706 29.0562 215.931 24.9787 218.381 21.6887C220.866 18.3637 224.191 15.8787 228.356 14.2337C232.556 12.5887 237.211 11.7837 242.321 11.8187C247.501 11.8537 252.121 12.7462 256.181 14.4962C260.241 16.2112 263.636 18.7137 266.366 22.0037C269.096 25.2937 271.021 29.2662 272.141 33.9212L258.544 36.2837C257.984 33.6237 256.899 31.3662 255.289 29.5112C253.714 27.6212 251.771 26.1862 249.461 25.2062C247.186 24.2262 244.754 23.7012 242.164 23.6312C239.644 23.5962 237.299 23.9812 235.129 24.7862C232.994 25.5562 231.261 26.6762 229.931 28.1462C228.636 29.6162 227.989 31.3312 227.989 33.2912C227.989 35.1462 228.549 36.6687 229.669 37.8587C230.789 39.0137 232.171 39.9412 233.816 40.6412C235.496 41.3062 237.194 41.8662 238.909 42.3212L252.454 46.1012C254.309 46.5912 256.391 47.2562 258.701 48.0962C261.011 48.9362 263.234 50.1087 265.369 51.6137C267.504 53.1187 269.254 55.0962 270.619 57.5462C272.019 59.9962 272.719 63.1112 272.719 66.8912C272.719 70.8112 271.896 74.2587 270.251 77.2337C268.641 80.1737 266.454 82.6237 263.689 84.5837C260.924 86.5437 257.756 88.0137 254.186 88.9937C250.651 89.9737 246.941 90.4637 243.056 90.4637ZM303.245 90.5162C299.045 90.5162 295.58 89.8162 292.85 88.4162C290.12 87.0162 287.95 85.2312 286.34 83.0612C284.73 80.8912 283.54 78.5812 282.77 76.1312C282 73.6812 281.492 71.3712 281.247 69.2012C281.037 66.9962 280.932 65.2112 280.932 63.8462V32.1887H293.742V59.4887C293.742 61.2387 293.865 63.2162 294.11 65.4212C294.355 67.5912 294.915 69.6912 295.79 71.7212C296.7 73.7162 298.03 75.3612 299.78 76.6562C301.565 77.9512 303.962 78.5987 306.972 78.5987C308.582 78.5987 310.175 78.3362 311.75 77.8112C313.325 77.2862 314.742 76.3937 316.002 75.1337C317.297 73.8387 318.33 72.0712 319.1 69.8312C319.87 67.5912 320.255 64.7562 320.255 61.3262L327.762 64.5287C327.762 69.3587 326.817 73.7337 324.927 77.6537C323.072 81.5737 320.325 84.7062 316.685 87.0512C313.045 89.3612 308.565 90.5162 303.245 90.5162ZM321.777 88.8887V71.3012H320.255V32.1887H332.96V88.8887H321.777ZM384.827 88.8887V61.5887C384.827 59.8037 384.705 57.8262 384.46 55.6562C384.215 53.4862 383.637 51.4037 382.727 49.4087C381.852 47.3787 380.522 45.7162 378.737 44.4212C376.987 43.1262 374.607 42.4787 371.597 42.4787C369.987 42.4787 368.395 42.7412 366.82 43.2662C365.245 43.7912 363.81 44.7012 362.515 45.9962C361.255 47.2562 360.24 49.0062 359.47 51.2462C358.7 53.4512 358.315 56.2862 358.315 59.7512L350.807 56.5487C350.807 51.7187 351.735 47.3437 353.59 43.4237C355.48 39.5037 358.245 36.3887 361.885 34.0787C365.525 31.7337 370.005 30.5612 375.325 30.5612C379.525 30.5612 382.99 31.2612 385.72 32.6612C388.45 34.0612 390.62 35.8462 392.23 38.0162C393.84 40.1862 395.03 42.4962 395.8 44.9462C396.57 47.3962 397.06 49.7237 397.27 51.9287C397.515 54.0987 397.637 55.8662 397.637 57.2312V88.8887H384.827ZM345.505 88.8887V32.1887H356.792V49.7762H358.315V88.8887H345.505ZM431.13 90.4637C424.13 90.4637 418.442 88.8887 414.067 85.7387C409.692 82.5887 407.032 78.1612 406.087 72.4562L419.002 70.4612C419.667 73.2612 421.137 75.4662 423.412 77.0762C425.687 78.6862 428.557 79.4912 432.022 79.4912C435.067 79.4912 437.412 78.8962 439.057 77.7062C440.737 76.4812 441.577 74.8187 441.577 72.7187C441.577 71.4237 441.262 70.3912 440.632 69.6212C440.037 68.8162 438.707 68.0462 436.643 67.3112C434.577 66.5762 431.41 65.6487 427.14 64.5287C422.38 63.2687 418.6 61.9212 415.8 60.4862C413 59.0162 410.987 57.2837 409.762 55.2887C408.537 53.2937 407.925 50.8787 407.925 48.0437C407.925 44.5087 408.852 41.4287 410.707 38.8037C412.562 36.1787 415.152 34.1662 418.477 32.7662C421.802 31.3312 425.722 30.6137 430.237 30.6137C434.647 30.6137 438.55 31.2962 441.945 32.6612C445.375 34.0262 448.14 35.9687 450.24 38.4887C452.34 41.0087 453.635 43.9662 454.125 47.3612L441.21 49.6712C440.895 47.2562 439.792 45.3487 437.902 43.9487C436.047 42.5487 433.562 41.7612 430.447 41.5862C427.472 41.4112 425.075 41.8662 423.255 42.9512C421.435 44.0012 420.525 45.4887 420.525 47.4137C420.525 48.4987 420.892 49.4262 421.627 50.1962C422.362 50.9662 423.832 51.7362 426.037 52.5062C428.277 53.2762 431.602 54.2212 436.012 55.3412C440.527 56.4962 444.132 57.8262 446.828 59.3312C449.557 60.8012 451.517 62.5687 452.707 64.6337C453.932 66.6987 454.545 69.2012 454.545 72.1412C454.545 77.8462 452.462 82.3262 448.298 85.5812C444.167 88.8362 438.445 90.4637 431.13 90.4637ZM489.722 90.4637C483.982 90.4637 478.942 89.2212 474.602 86.7362C470.262 84.2512 466.867 80.8037 464.417 76.3937C462.002 71.9837 460.794 66.9087 460.794 61.1687C460.794 54.9737 461.984 49.6012 464.364 45.0512C466.744 40.4662 470.052 36.9137 474.287 34.3937C478.522 31.8737 483.422 30.6137 488.987 30.6137C494.867 30.6137 499.854 31.9962 503.949 34.7612C508.079 37.4912 511.142 41.3587 513.137 46.3637C515.132 51.3687 515.884 57.2662 515.394 64.0562H502.847V59.4362C502.812 53.2762 501.727 48.7787 499.592 45.9437C497.457 43.1087 494.097 41.6912 489.512 41.6912C484.332 41.6912 480.482 43.3012 477.962 46.5212C475.442 49.7062 474.182 54.3787 474.182 60.5387C474.182 66.2787 475.442 70.7237 477.962 73.8737C480.482 77.0237 484.157 78.5987 488.987 78.5987C492.102 78.5987 494.779 77.9162 497.019 76.5512C499.294 75.1512 501.044 73.1387 502.269 70.5137L514.764 74.2937C512.594 79.4037 509.234 83.3762 504.684 86.2112C500.169 89.0462 495.182 90.4637 489.722 90.4637ZM470.192 64.0562V54.5012H509.199V64.0562H470.192ZM558.241 88.8887C554.496 89.5887 550.821 89.8862 547.216 89.7812C543.646 89.7112 540.443 89.0637 537.608 87.8387C534.773 86.5787 532.621 84.6012 531.151 81.9062C529.856 79.4562 529.173 76.9537 529.103 74.3987C529.033 71.8437 528.998 68.9562 528.998 65.7362V16.4387H541.598V65.0012C541.598 67.2762 541.616 69.2712 541.651 70.9862C541.721 72.7012 542.088 74.1012 542.753 75.1862C544.013 77.2862 546.026 78.4587 548.791 78.7037C551.556 78.9487 554.706 78.8087 558.241 78.2837V88.8887ZM518.708 42.1112V32.1887H558.241V42.1112H518.708Z" fill="white"/>
</svg>
